<mxfile host="65bd71144e">
    <diagram id="CsDvwH3cZ1PsBRrToB9u" name="Page-1">
        <mxGraphModel dx="1112" dy="435" grid="1" gridSize="10" guides="1" tooltips="1" connect="1" arrows="1" fold="1" page="1" pageScale="1" pageWidth="850" pageHeight="1100" math="0" shadow="0">
            <root>
                <mxCell id="0"/>
                <mxCell id="1" parent="0"/>
                <mxCell id="2" value="" style="rounded=0;whiteSpace=wrap;html=1;fillColor=#f5f5f5;fontColor=#333333;strokeColor=#666666;" parent="1" vertex="1">
                    <mxGeometry x="40" y="40" width="720" height="480" as="geometry"/>
                </mxCell>
                <mxCell id="3" value="Search..." style="rounded=0;whiteSpace=wrap;html=1;fillColor=#f5f5f5;fontColor=#333333;strokeColor=#666666;" parent="1" vertex="1">
                    <mxGeometry x="312.5" y="50" width="175" height="30" as="geometry"/>
                </mxCell>
                <mxCell id="5" value="" style="rounded=0;whiteSpace=wrap;html=1;fillColor=#f5f5f5;fontColor=#333333;strokeColor=#666666;" parent="1" vertex="1">
                    <mxGeometry x="848" y="40" width="720" height="480" as="geometry"/>
                </mxCell>
                <mxCell id="6" value="Search keywords" style="rounded=0;whiteSpace=wrap;html=1;fillColor=#f5f5f5;fontColor=#333333;strokeColor=#666666;" parent="1" vertex="1">
                    <mxGeometry x="1120.5" y="50" width="175" height="30" as="geometry"/>
                </mxCell>
                <mxCell id="7" value="" style="rounded=0;whiteSpace=wrap;html=1;fillColor=#f5f5f5;fontColor=#333333;strokeColor=#666666;" parent="1" vertex="1">
                    <mxGeometry x="1120.5" y="80" width="175" height="150" as="geometry"/>
                </mxCell>
                <mxCell id="8" value="Keywords suggestion 1" style="rounded=0;whiteSpace=wrap;html=1;fillColor=#f5f5f5;fontColor=#333333;strokeColor=#666666;align=left;" parent="1" vertex="1">
                    <mxGeometry x="1120.5" y="80" width="175" height="20" as="geometry"/>
                </mxCell>
                <mxCell id="9" value="Keywords suggestion 2" style="rounded=0;whiteSpace=wrap;html=1;fillColor=#f5f5f5;fontColor=#333333;strokeColor=#666666;align=left;" parent="1" vertex="1">
                    <mxGeometry x="1120.5" y="100" width="175" height="20" as="geometry"/>
                </mxCell>
                <mxCell id="10" value="Keywords suggestion 3" style="rounded=0;whiteSpace=wrap;html=1;fillColor=#f5f5f5;fontColor=#333333;strokeColor=#666666;align=left;" parent="1" vertex="1">
                    <mxGeometry x="1120.5" y="120" width="175" height="20" as="geometry"/>
                </mxCell>
                <mxCell id="11" value="Keywords suggestion 4" style="rounded=0;whiteSpace=wrap;html=1;fillColor=#f5f5f5;fontColor=#333333;strokeColor=#666666;align=left;" parent="1" vertex="1">
                    <mxGeometry x="1120.5" y="140" width="175" height="20" as="geometry"/>
                </mxCell>
                <mxCell id="12" value="Keywords suggestion 5" style="rounded=0;whiteSpace=wrap;html=1;fillColor=#f5f5f5;fontColor=#333333;strokeColor=#666666;align=left;" parent="1" vertex="1">
                    <mxGeometry x="1120.5" y="160" width="175" height="20" as="geometry"/>
                </mxCell>
                <mxCell id="14" value="Suggestions based on what (all) the users previously wrote" style="rounded=0;whiteSpace=wrap;html=1;fillColor=#f5f5f5;fontColor=#333333;strokeColor=#666666;" parent="1" vertex="1">
                    <mxGeometry x="1120.5" y="180" width="175" height="50" as="geometry"/>
                </mxCell>
                <mxCell id="15" value="Search suggestion while typing" style="text;html=1;strokeColor=none;fillColor=none;align=center;verticalAlign=middle;whiteSpace=wrap;rounded=0;" parent="1" vertex="1">
                    <mxGeometry x="848" y="10" width="210" height="30" as="geometry"/>
                </mxCell>
                <mxCell id="16" value="Position of the search bar in the overall UI" style="text;html=1;strokeColor=none;fillColor=none;align=center;verticalAlign=middle;whiteSpace=wrap;rounded=0;" parent="1" vertex="1">
                    <mxGeometry x="40" y="10" width="240" height="30" as="geometry"/>
                </mxCell>
                <mxCell id="17" value="" style="rounded=0;whiteSpace=wrap;html=1;fillColor=#f5f5f5;fontColor=#333333;strokeColor=#666666;" parent="1" vertex="1">
                    <mxGeometry x="1640" y="40" width="720" height="480" as="geometry"/>
                </mxCell>
                <mxCell id="18" value="Search..." style="rounded=0;whiteSpace=wrap;html=1;fillColor=#f5f5f5;fontColor=#333333;strokeColor=#666666;" parent="1" vertex="1">
                    <mxGeometry x="1912.5" y="50" width="175" height="30" as="geometry"/>
                </mxCell>
                <mxCell id="19" value="Search result UI" style="text;html=1;strokeColor=none;fillColor=none;align=center;verticalAlign=middle;whiteSpace=wrap;rounded=0;" parent="1" vertex="1">
                    <mxGeometry x="1640" y="10" width="240" height="30" as="geometry"/>
                </mxCell>
                <mxCell id="20" value="Show only ... type (dropdown)" style="rounded=0;whiteSpace=wrap;html=1;fillColor=#f5f5f5;fontColor=#333333;strokeColor=#666666;" parent="1" vertex="1">
                    <mxGeometry x="1792.5" y="95" width="177.5" height="30" as="geometry"/>
                </mxCell>
                <mxCell id="21" value="Date : from ... to ..." style="rounded=0;whiteSpace=wrap;html=1;fillColor=#f5f5f5;fontColor=#333333;strokeColor=#666666;" parent="1" vertex="1">
                    <mxGeometry x="2030" y="95" width="147.5" height="30" as="geometry"/>
                </mxCell>
                <mxCell id="22" value="LOGO" style="rounded=0;whiteSpace=wrap;html=1;fillColor=#f5f5f5;fontColor=#333333;strokeColor=#666666;" parent="1" vertex="1">
                    <mxGeometry x="1792.5" y="150" width="147.5" height="90" as="geometry"/>
                </mxCell>
                <mxCell id="23" value="DESC" style="rounded=0;whiteSpace=wrap;html=1;fillColor=#f5f5f5;fontColor=#333333;strokeColor=#666666;" parent="1" vertex="1">
                    <mxGeometry x="1940" y="150" width="360" height="90" as="geometry"/>
                </mxCell>
                <mxCell id="24" value="TYPE" style="rounded=0;whiteSpace=wrap;html=1;fillColor=#f5f5f5;fontColor=#333333;strokeColor=#666666;" parent="1" vertex="1">
                    <mxGeometry x="1940" y="220" width="110" height="20" as="geometry"/>
                </mxCell>
                <mxCell id="25" value="LOGO" style="rounded=0;whiteSpace=wrap;html=1;fillColor=#f5f5f5;fontColor=#333333;strokeColor=#666666;" parent="1" vertex="1">
                    <mxGeometry x="1792.5" y="260" width="147.5" height="90" as="geometry"/>
                </mxCell>
                <mxCell id="26" value="DESC" style="rounded=0;whiteSpace=wrap;html=1;fillColor=#f5f5f5;fontColor=#333333;strokeColor=#666666;" parent="1" vertex="1">
                    <mxGeometry x="1940" y="260" width="360" height="90" as="geometry"/>
                </mxCell>
                <mxCell id="27" value="TYPE" style="rounded=0;whiteSpace=wrap;html=1;fillColor=#f5f5f5;fontColor=#333333;strokeColor=#666666;" parent="1" vertex="1">
                    <mxGeometry x="1940" y="330" width="110" height="20" as="geometry"/>
                </mxCell>
                <mxCell id="28" value="LOGO" style="rounded=0;whiteSpace=wrap;html=1;fillColor=#f5f5f5;fontColor=#333333;strokeColor=#666666;" parent="1" vertex="1">
                    <mxGeometry x="1792.5" y="370" width="147.5" height="90" as="geometry"/>
                </mxCell>
                <mxCell id="29" value="DESC" style="rounded=0;whiteSpace=wrap;html=1;fillColor=#f5f5f5;fontColor=#333333;strokeColor=#666666;" parent="1" vertex="1">
                    <mxGeometry x="1940" y="370" width="360" height="90" as="geometry"/>
                </mxCell>
                <mxCell id="30" value="TYPE" style="rounded=0;whiteSpace=wrap;html=1;fillColor=#f5f5f5;fontColor=#333333;strokeColor=#666666;" parent="1" vertex="1">
                    <mxGeometry x="1940" y="440" width="110" height="20" as="geometry"/>
                </mxCell>
            </root>
        </mxGraphModel>
    </diagram>
</mxfile>